<svg width="645" height="96" viewBox="0 0 645 96" fill="none" xmlns="http://www.w3.org/2000/svg">
<g clip-path="url(#clip0_13_2)">
<path d="M36.96 76C32.2133 76 29.84 73.36 29.84 68.08V21.44H24.8V16H41.6V21.44H36.4V70.56H58.16V21.44H52.96V16H69.76V21.44H64.72V67.68C64.72 73.2267 62.32 76 57.52 76H36.96ZM105.571 46.64C106.638 47.3867 107.625 48.0533 108.531 48.64C109.491 49.1733 110.318 49.76 111.011 50.4C112.398 51.68 113.091 53.2533 113.091 55.12V68.72C113.091 71.12 112.238 72.96 110.531 74.24C109.091 75.4133 107.198 76 104.851 76H79.3313V61.2H85.0912V70.56H106.691V54.96L85.7313 42.08C83.8646 41.0133 82.3179 39.92 81.0913 38.8C79.9179 37.6267 79.3313 36.0533 79.3313 34.08V24C79.3313 20.8533 80.0779 18.6933 81.5713 17.52C82.8513 16.5067 85.0646 16 88.2113 16H112.371V30.8H106.611V21.44H85.7313V34.24L105.571 46.64ZM354.955 47.68H343.675V70.56H348.875V76H332.075V70.56H337.115V21.44H332.075V16H369.595V30.8H364.155V21.44H343.675V42.24H354.955V36.56H360.395V53.36H354.955V47.68ZM392.44 36C396.6 36 398.68 38.0533 398.68 42.16V49.28H392.2V41.52L379.72 49.44V70.56H383.64V76H368.2V70.56H373.24V41.36H368.2V35.92H379.72V42.96L389.56 36.8C390.413 36.2667 391.373 36 392.44 36ZM405.875 43.84C405.875 38.56 408.622 35.92 414.115 35.92H427.635C430.248 35.92 432.142 36.4267 433.315 37.44C434.488 38.4533 435.075 40.32 435.075 43.04V50.48L412.275 64.88V70.56H428.755V65.92H435.075V70.16C435.075 71.76 434.568 73.1467 433.555 74.32C432.595 75.44 430.968 76 428.675 76H412.275C409.982 76 408.328 75.44 407.315 74.32C406.355 73.1467 405.875 71.76 405.875 70.16V43.84ZM412.275 58.4L428.675 48.08V41.44H412.275V58.4ZM443.063 43.84C443.063 38.56 445.809 35.92 451.303 35.92H464.823C467.436 35.92 469.329 36.4267 470.503 37.44C471.676 38.4533 472.263 40.32 472.263 43.04V50.48L449.463 64.88V70.56H465.943V65.92H472.263V70.16C472.263 71.76 471.756 73.1467 470.743 74.32C469.783 75.44 468.156 76 465.863 76H449.463C447.169 76 445.516 75.44 444.503 74.32C443.543 73.1467 443.063 71.76 443.063 70.16V43.84ZM449.463 58.4L465.863 48.08V41.44H449.463V58.4ZM515.21 70.48V76H503.61V66.8L489.77 75.52C488.117 76.3733 486.543 76.8 485.05 76.8C483.61 76.8 482.437 76.2667 481.53 75.2C480.677 74.1333 480.25 72.9067 480.25 71.52V43.52C480.25 41.0667 480.623 39.3867 481.37 38.48C482.65 36.8267 484.677 36 487.45 36H503.61V21.44H498.33V16H510.17V70.48H515.21ZM503.61 41.44H486.65V70.96L503.61 60.4V41.44ZM529.078 76C526.358 76 524.438 75.3867 523.318 74.16C522.198 72.88 521.638 71.12 521.638 68.88V43.12C521.638 40.9867 522.118 39.28 523.078 38C524.091 36.6667 526.091 36 529.078 36H543.878C546.811 36 548.784 36.6667 549.798 38C550.811 39.28 551.318 40.9867 551.318 43.12V68.88C551.318 71.12 550.758 72.88 549.638 74.16C548.518 75.3867 546.598 76 543.878 76H529.078ZM528.118 70.56H544.838V41.44H528.118V70.56ZM605.331 35.2C609.491 35.2 611.571 37.2533 611.571 41.36V70.56H616.691V76H601.251V70.56H605.091V40.8L590.451 49.92V70.56H594.371V76H580.051V70.56H583.891L583.971 70.24V40.72L569.251 49.92V70.56H573.171V76H557.731V70.56H562.771V41.36H557.731V36H569.251V43.6L581.331 36C582.185 35.4667 583.145 35.2 584.211 35.2C588.371 35.2 590.451 37.2533 590.451 41.36V43.52L602.451 36C603.305 35.4667 604.265 35.2 605.331 35.2Z" fill="#0C2672"/>
<path d="M178.899 16C182.846 16 185.566 16.88 187.059 18.64C188.606 20.3467 189.379 22.96 189.379 26.48V65.52C189.379 69.2 188.526 71.8667 186.819 73.52C185.113 75.1733 182.473 76 178.899 76H150.659V70.56H155.699V21.44H150.659V16H178.899ZM182.819 21.44H162.259V70.56H182.819V21.44ZM198.141 43.84C198.141 38.56 200.887 35.92 206.381 35.92H219.901C222.514 35.92 224.407 36.4267 225.581 37.44C226.754 38.4533 227.341 40.32 227.341 43.04V50.48L204.541 64.88V70.56H221.021V65.92H227.341V70.16C227.341 71.76 226.834 73.1467 225.821 74.32C224.861 75.44 223.234 76 220.941 76H204.541C202.247 76 200.594 75.44 199.581 74.32C198.621 73.1467 198.141 71.76 198.141 70.16V43.84ZM204.541 58.4L220.941 48.08V41.44H204.541V58.4ZM259.728 36.32C260.901 35.5733 262.261 35.2 263.808 35.2C265.408 35.2 266.741 35.7867 267.808 36.96C268.928 38.1333 269.488 39.84 269.488 42.08V68.96C269.488 71.1467 269.141 72.6933 268.448 73.6C267.168 75.2 265.221 76 262.608 76H234.528V70.56H239.568V21.44H234.528V16H246.128V44.88L259.728 36.32ZM263.088 40.64L246.128 51.28V70.56H263.088V40.64ZM288.876 21.44V36H295.356V41.76H288.876V70.56H296.476V76H289.756C287.356 76 285.569 75.3867 284.396 74.16C283.222 72.88 282.636 70.72 282.636 67.68V41.76H276.716V36H282.636V21.44H288.876Z" fill="#BE3535"/>
</g>
<defs>
<clipPath id="clip0_13_2">
<rect width="645" height="96" fill="white"/>
</clipPath>
</defs>
</svg>
