<svg id="Layer_1" data-name="Layer 1" xmlns="http://www.w3.org/2000/svg" viewBox="0 0 74.44 27.02"><defs><style>.cls-1{fill:#002777;}.cls-2{fill:#cf212d;}</style></defs><path class="cls-1" d="M1.68,8.21A4,4,0,0,1,.79,5.34V1L0,.85V.11H3.62V.85L2.6,1V5.5c0,1.9.68,2.85,2,2.85a1.62,1.62,0,0,0,1.48-.74,3.77,3.77,0,0,0,.48-2.07V1l-1-.17V.11h3V.85L7.74,1V5.45a3.73,3.73,0,0,1-.91,2.77,3.29,3.29,0,0,1-2.44.9A3.62,3.62,0,0,1,1.68,8.21Z"/><path class="cls-1" d="M11.09,9.05c-.35-.07-.73-.17-1.15-.29a3.8,3.8,0,0,0-.57-.13l.11-2.22h1L10.72,8a1.37,1.37,0,0,0,.55.3,3.24,3.24,0,0,0,.92.13A1.77,1.77,0,0,0,13.4,8a1.23,1.23,0,0,0,.4-1,1.12,1.12,0,0,0-.24-.72,2.15,2.15,0,0,0-.66-.55,9.44,9.44,0,0,0-1.15-.57A5.84,5.84,0,0,1,10.1,4.11,2.25,2.25,0,0,1,9.44,2.4a2.25,2.25,0,0,1,.35-1.22,2.36,2.36,0,0,1,1-.86A4,4,0,0,1,12.52,0a6.25,6.25,0,0,1,1,.08c.3.06.63.14,1,.23s.37.09.47.11l-.07,2.1H14L13.72,1a1.28,1.28,0,0,0-.44-.21,2.61,2.61,0,0,0-.72-.1,1.55,1.55,0,0,0-1.08.33,1.12,1.12,0,0,0-.37.88,1.15,1.15,0,0,0,.27.77,2.36,2.36,0,0,0,.66.55c.25.15.66.36,1.21.63a10.64,10.64,0,0,1,1.15.63,3,3,0,0,1,.83.81,2,2,0,0,1,.35,1.17,2.58,2.58,0,0,1-.33,1.26,2.51,2.51,0,0,1-1.08,1,4.14,4.14,0,0,1-1.92.4A5.79,5.79,0,0,1,11.09,9.05Z"/><path class="cls-2" d="M20.18,1l-1-.16V.11h6.62l.12,2.17H25L24.54,1,22,.83V4.22l1.79,0L24,3.13h.77V6.18H24L23.74,5.1,22,5.05V8.18l1.83.12V9H19.26V8.3l.92-.12Z"/><path class="cls-2" d="M27.8,1l-1-.16V.11h3.84V.85L29.57,1V8.18l1.05.14V9H26.78V8.3l1-.12Z"/><path class="cls-2" d="M32.59,1l-1-.16V.11h2.73l3.57,5.4.68,1.37V1l-1-.16V.11h3V.85L39.64,1V9H38.18L34.45,3.35l-.84-1.59V8.18l1.21.12V9H31.64V8.3l1-.12Z"/><path class="cls-2" d="M44.08.06h1.83l2.77,8.12.7.12V9H45.84V8.3l.9-.12-.47-1.56H43.16L42.7,8.2l1,.1V9H40.61V8.3l.72-.12Zm.82,2-.21-.94-.23,1L43.39,5.78H46Z"/><path class="cls-2" d="M50.65,1,49.7.85V.11h2.73L56,5.51l.68,1.37V1l-1-.16V.11h3V.85L57.7,1V9H56.24L52.51,3.35l-.84-1.59V8.18l1.21.12V9H49.7V8.3l.95-.12Z"/><path class="cls-2" d="M60.29,7.94a4.83,4.83,0,0,1-1.08-3.33,5,5,0,0,1,.57-2.43A4,4,0,0,1,61.34.58,4.49,4.49,0,0,1,63.6,0a6.81,6.81,0,0,1,1,.07l1.16.17.56.09L66.2,2.81H65.1l-.37-1.72a.94.94,0,0,0-.46-.21,3.13,3.13,0,0,0-.83-.09,1.88,1.88,0,0,0-1.63.94,4.93,4.93,0,0,0-.62,2.73,5.79,5.79,0,0,0,.59,2.82,1.85,1.85,0,0,0,1.71,1.1,2.62,2.62,0,0,0,.84-.11A1.21,1.21,0,0,0,64.82,8l.53-1.24,1,.1L66.12,8.7a4.37,4.37,0,0,0-.5.09l-.3.08q-.48.14-.9.21a5.65,5.65,0,0,1-1,.08A4,4,0,0,1,60.29,7.94Z"/><path class="cls-2" d="M68.17,1l-1-.16V.11h6.4l.15,2h-.84L72.53.94,69.94.83V4.06L71.6,4l.2-1h.76v2.9H71.8l-.2-1-1.66,0V8.26l2.9-.15.7-1.53.9.25L74.12,9h-6.9V8.3l1-.12Z"/><path class="cls-1" d="M.56,25.81l1.61-.21V13.46L.65,13.18V11.94H3.59l.85,0,.71,0c.7-.05,1.29-.08,1.75-.08a10.56,10.56,0,0,1,3.35.43,3.33,3.33,0,0,1,1.82,1.29,4.17,4.17,0,0,1,.57,2.3,4.82,4.82,0,0,1-.75,2.6,3.8,3.8,0,0,1-2.17,1.64,3.4,3.4,0,0,1,1.44,1.26,18.35,18.35,0,0,1,1.34,2.37q.51,1,.78,1.44a1,1,0,0,0,.54.49l.67.21V27H11c-.22,0-.44-.22-.68-.66a20.91,20.91,0,0,1-.93-2.08c-.44-1.11-.83-2-1.15-2.59a2.32,2.32,0,0,0-1-1.16H5.15V25.6L7,25.81V27H.56Zm8.27-7.35A4.06,4.06,0,0,0,9.48,16a3.22,3.22,0,0,0-.64-2.19,2.85,2.85,0,0,0-2.21-.71,6.62,6.62,0,0,0-1,0l-.52.05v6.09a9.34,9.34,0,0,0,1.18,0H7A2.19,2.19,0,0,0,8.83,18.46Z"/><path class="cls-1" d="M16.8,13.46l-1.62-.26V11.94H26l.26,3.41H24.84l-.67-2-4.38-.18v5.46l2.82-.06.32-1.67h1.3v4.92h-1.3l-.32-1.75L19.79,20v5.73l4.91-.25,1.18-2.6,1.52.43L26.87,27H15.2V25.81l1.6-.21Z"/><path class="cls-1" d="M30.12,13.46l-1.56-.26V11.94h6.49V13.2l-1.95.26V25.58l4.35-.18,1.28-3.8,1.64.23L39.74,27H28.52V25.81l1.6-.21Z"/><path class="cls-1" d="M43.31,13.46l-1.72-.26V11.94h6.5V13.2l-1.79.26V25.6l1.79.23V27h-6.5V25.81l1.72-.21Z"/><path class="cls-1" d="M51.4,13.46l-1.63-.26V11.94H60.59l.26,3.41H59.43l-.67-2-4.38-.18v5.46l2.82-.06.33-1.67h1.29v4.92H57.53l-.33-1.75L54.38,20v5.73l4.91-.25,1.18-2.6,1.52.43L61.46,27H49.79V25.81l1.61-.21Z"/><path class="cls-1" d="M64.69,13.46,63,13.2V11.94h11.2l.21,3.68H72.81l-.75-2.24-4.38-.22V18.9l3-.06.39-1.78h1.29v5.15H71.11l-.41-1.82-3-.08V25.6l3.1.21V27H63.13V25.81l1.56-.21Z"/></svg>