<svg xmlns="http://www.w3.org/2000/svg" xmlns:xlink="http://www.w3.org/1999/xlink" id="Layer_1" x="0px" y="0px" viewBox="0 0 489.4 43.2" style="enable-background:new 0 0 489.4 43.2;" xml:space="preserve"><style type="text/css">	.st0{fill:none;}	.st1{fill:#002777;}	.st2{fill:#CF212D;}</style><g>	<rect x="0.7" y="0.1" class="st0" width="488.6" height="89.3"></rect>	<path class="st1" d="M8.4,36.1C6,33.7,4.8,29.9,4.8,24.7V7.3L1.7,6.7v-3h14.5v3l-4.1,0.7v17.9c0,7.6,2.7,11.4,8.1,11.4  c2.7,0,4.6-1,5.9-3c1.3-2,1.9-4.7,1.9-8.3V7.4l-4.1-0.7v-3h12v3l-3.3,0.6v17.8c0,5-1.2,8.7-3.6,11.1c-2.4,2.4-5.7,3.6-9.8,3.6  C14.4,39.8,10.7,38.6,8.4,36.1z"></path>	<path class="st1" d="M46,39.5c-1.4-0.3-2.9-0.7-4.6-1.2c-1.1-0.3-1.9-0.5-2.3-0.5l0.4-8.9h3.9l1.1,6.2c0.4,0.4,1.2,0.8,2.2,1.2  c1.1,0.4,2.3,0.5,3.7,0.5c2.1,0,3.8-0.5,4.8-1.4c1.1-0.9,1.6-2.3,1.6-4c0-1.1-0.3-2.1-1-2.9c-0.6-0.8-1.5-1.6-2.6-2.2  c-1.1-0.7-2.7-1.4-4.6-2.3c-2.7-1.2-4.9-2.7-6.6-4.3c-1.7-1.7-2.6-4-2.6-6.8c0-1.8,0.5-3.4,1.4-4.9c0.9-1.5,2.3-2.6,4.2-3.5  c1.8-0.8,4.1-1.3,6.7-1.3c1.6,0,3,0.1,4.2,0.3c1.2,0.2,2.5,0.5,3.9,0.9c0.8,0.2,1.5,0.4,1.9,0.4l-0.3,8.4h-3.8l-1-5.9  c-0.3-0.3-0.9-0.6-1.7-0.8c-0.9-0.3-1.8-0.4-2.9-0.4c-1.9,0-3.4,0.4-4.3,1.3c-1,0.9-1.5,2.1-1.5,3.5c0,1.2,0.4,2.2,1.1,3.1  c0.7,0.9,1.6,1.6,2.6,2.2c1,0.6,2.6,1.4,4.8,2.5c1.8,0.9,3.3,1.7,4.6,2.5c1.3,0.8,2.4,1.9,3.3,3.2c0.9,1.3,1.4,2.9,1.4,4.7  c0,1.8-0.4,3.4-1.3,5c-0.9,1.6-2.3,2.9-4.3,4c-2,1.1-4.6,1.6-7.7,1.6C48.9,39.9,47.4,39.8,46,39.5z"></path>	<path class="st2" d="M82.4,7.3l-3.9-0.6v-3H105l0.5,8.7h-3.8l-1.8-5.3L89.4,6.6v13.6l7.2-0.1l0.9-4.2h3.1V28h-3l-1-4.3l-7.2-0.2  v12.5l7.3,0.5v2.9H78.7v-2.9l3.7-0.5V7.3z"></path>	<path class="st2" d="M112.9,7.3l-4.1-0.6v-3h15.4v3l-4.2,0.6v28.7l4.2,0.5v2.8h-15.4v-2.9l4.1-0.5V7.3z"></path>	<path class="st2" d="M132,7.3l-3.8-0.6v-3h10.9l14.3,21.6l2.7,5.5V7.3L152,6.7v-3h11.9v3l-3.7,0.6v32.1h-5.8l-14.9-22.7l-3.4-6.3  v25.7l4.8,0.5v2.9h-12.7v-2.9l3.8-0.5V7.3z"></path>	<path class="st2" d="M178,3.6h7.3l11.1,32.5l2.8,0.5v2.9H185v-2.9l3.6-0.5l-1.9-6.2h-12.4l-1.9,6.3l3.9,0.4v2.9h-12.2l0-2.9  l2.9-0.5L178,3.6z M181.3,11.7l-0.9-3.7l-0.9,3.8l-4.3,14.7h10.6L181.3,11.7z"></path>	<path class="st2" d="M204.3,7.3l-3.8-0.6v-3h10.9l14.3,21.6l2.7,5.5V7.3l-4.1-0.6v-3h11.9v3l-3.7,0.6v32.1h-5.8l-14.9-22.7  l-3.4-6.3v25.7l4.8,0.5v2.9h-12.7v-2.9l3.8-0.5V7.3z"></path>	<path class="st2" d="M242.8,35.1c-2.9-3.2-4.3-7.7-4.3-13.3c0-3.7,0.8-7,2.3-9.7c1.5-2.8,3.6-4.9,6.3-6.4c2.7-1.5,5.7-2.3,9-2.3  c1.4,0,2.8,0.1,4.1,0.3c1.3,0.2,2.9,0.4,4.7,0.7c1.3,0.2,2.1,0.3,2.2,0.3l-0.5,9.9h-4.4l-1.5-6.9c-0.4-0.4-1-0.6-1.8-0.9  c-0.9-0.2-2-0.3-3.3-0.3c-2.7,0-4.9,1.3-6.6,3.8c-1.6,2.5-2.5,6.2-2.5,10.9c0,4.6,0.8,8.4,2.4,11.3c1.6,2.9,3.9,4.4,6.9,4.4  c1.4,0,2.6-0.1,3.3-0.4c0.8-0.3,1.4-0.7,2-1.2l2.1-4.9l4,0.4l-1,7.4c-0.7,0.1-1.3,0.2-2,0.4c-0.7,0.2-1.1,0.3-1.2,0.3  c-1.3,0.4-2.5,0.6-3.6,0.8c-1.1,0.2-2.5,0.3-4.1,0.3C249.8,39.9,245.7,38.3,242.8,35.1z"></path>	<path class="st2" d="M274.3,7.3l-3.8-0.6v-3h25.6l0.6,8.1h-3.4l-1.6-4.8l-10.4-0.4v12.9l6.7-0.1l0.8-3.9h3.1v11.6h-3.1l-0.8-4.1  l-6.7-0.1v13.5l11.6-0.6l2.8-6.1l3.6,1l-1.2,8.8h-27.6v-2.9l3.8-0.5V7.3z"></path>	<path class="st1" d="M313.4,36.5l3.8-0.5V7.3l-3.6-0.7V3.7h7c0.6,0,1.3,0,2,0c0.7,0,1.3-0.1,1.7-0.1c1.7-0.1,3-0.2,4.1-0.2  c3.3,0,5.9,0.3,7.9,1c2,0.7,3.4,1.7,4.3,3.1c0.9,1.4,1.3,3.2,1.3,5.4c0,2.2-0.6,4.3-1.8,6.1c-1.2,1.9-2.9,3.2-5.1,3.9  c1.3,0.5,2.4,1.5,3.4,3c1,1.4,2,3.3,3.2,5.6c0.8,1.6,1.4,2.7,1.8,3.4c0.4,0.7,0.9,1.1,1.3,1.2l1.6,0.5v2.8h-8.2  c-0.5,0-1-0.5-1.6-1.6c-0.6-1-1.3-2.7-2.2-4.9c-1.1-2.6-2-4.7-2.7-6.1c-0.8-1.5-1.6-2.4-2.4-2.7h-4.9v12l4.4,0.5v2.9h-15.3V36.5z   M332.9,19.2c1-1.3,1.5-3.3,1.5-5.9c0-2.3-0.5-4.1-1.5-5.2c-1-1.1-2.7-1.7-5.2-1.7c-0.9,0-1.7,0-2.3,0.1c-0.6,0.1-1,0.1-1.2,0.1V21  c0.4,0.1,1.3,0.1,2.8,0.1h1.6C330.5,21.1,331.9,20.5,332.9,19.2z"></path>	<path class="st1" d="M351.8,7.3l-3.8-0.6v-3h25.6l0.6,8.1h-3.4l-1.6-4.8l-10.4-0.4v12.9l6.7-0.1l0.8-3.9h3.1v11.6h-3.1l-0.8-4.1  l-6.7-0.1v13.5l11.6-0.6l2.8-6.1l3.6,1l-1.2,8.8H348v-2.9l3.8-0.5V7.3z"></path>	<path class="st1" d="M383.3,7.3l-3.7-0.6v-3h15.4v3l-4.6,0.6V36l10.3-0.4l3-9l3.9,0.5L406,39.4h-26.5v-2.9l3.8-0.5V7.3z"></path>	<path class="st1" d="M414.5,7.3l-4.1-0.6v-3h15.4v3l-4.2,0.6v28.7l4.2,0.5v2.8h-15.4v-2.9l4.1-0.5V7.3z"></path>	<path class="st1" d="M433.6,7.3l-3.8-0.6v-3h25.6l0.6,8.1h-3.4L451,7.1l-10.4-0.4v12.9l6.7-0.1l0.8-3.9h3.1v11.6H448l-0.8-4.1  l-6.7-0.1v13.5l11.6-0.6l2.8-6.1l3.6,1l-1.2,8.8h-27.6v-2.9l3.8-0.5V7.3z"></path>	<path class="st1" d="M465,7.3l-3.9-0.6v-3h26.5l0.5,8.7h-3.8l-1.8-5.3L472,6.6v13.6l7.2-0.1l0.9-4.2h3.1V28h-3l-1-4.3l-7.2-0.2  v12.5l7.3,0.5v2.9h-18.1v-2.9l3.7-0.5V7.3z"></path></g><g></g><g></g><g></g><g></g><g></g><g></g></svg>