<svg width="333" height="191" viewBox="0 0 333 191" fill="none" xmlns="http://www.w3.org/2000/svg">
<g clip-path="url(#clip0_10_2)">
<path d="M36.96 76C32.2133 76 29.84 73.36 29.84 68.08V21.44H24.8V16H41.6V21.44H36.4V70.56H58.16V21.44H52.96V16H69.76V21.44H64.72V67.68C64.72 73.2267 62.32 76 57.52 76H36.96ZM105.571 46.64C106.638 47.3867 107.625 48.0533 108.531 48.64C109.491 49.1733 110.318 49.76 111.011 50.4C112.398 51.68 113.091 53.2533 113.091 55.12V68.72C113.091 71.12 112.238 72.96 110.531 74.24C109.091 75.4133 107.198 76 104.851 76H79.3313V61.2H85.0912V70.56H106.691V54.96L85.7313 42.08C83.8646 41.0133 82.3179 39.92 81.0913 38.8C79.9179 37.6267 79.3313 36.0533 79.3313 34.08V24C79.3313 20.8533 80.0779 18.6933 81.5713 17.52C82.8513 16.5067 85.0646 16 88.2113 16H112.371V30.8H106.611V21.44H85.7313V34.24L105.571 46.64ZM48.08 144.68H36.8V167.56H42V173H25.2V167.56H30.24V118.44H25.2V113H62.72V127.8H57.28V118.44H36.8V139.24H48.08V133.56H53.52V150.36H48.08V144.68ZM85.565 133C89.725 133 91.805 135.053 91.805 139.16V146.28H85.325V138.52L72.845 146.44V167.56H76.765V173H61.325V167.56H66.365V138.36H61.325V132.92H72.845V139.96L82.685 133.8C83.5383 133.267 84.4983 133 85.565 133ZM99 140.84C99 135.56 101.747 132.92 107.24 132.92H120.76C123.373 132.92 125.267 133.427 126.44 134.44C127.613 135.453 128.2 137.32 128.2 140.04V147.48L105.4 161.88V167.56H121.88V162.92H128.2V167.16C128.2 168.76 127.693 170.147 126.68 171.32C125.72 172.44 124.093 173 121.8 173H105.4C103.107 173 101.453 172.44 100.44 171.32C99.48 170.147 99 168.76 99 167.16V140.84ZM105.4 155.4L121.8 145.08V138.44H105.4V155.4ZM136.188 140.84C136.188 135.56 138.934 132.92 144.428 132.92H157.948C160.561 132.92 162.454 133.427 163.628 134.44C164.801 135.453 165.388 137.32 165.388 140.04V147.48L142.588 161.88V167.56H159.068V162.92H165.388V167.16C165.388 168.76 164.881 170.147 163.868 171.32C162.908 172.44 161.281 173 158.988 173H142.588C140.294 173 138.641 172.44 137.628 171.32C136.668 170.147 136.188 168.76 136.188 167.16V140.84ZM142.588 155.4L158.988 145.08V138.44H142.588V155.4ZM208.335 167.48V173H196.735V163.8L182.895 172.52C181.242 173.373 179.668 173.8 178.175 173.8C176.735 173.8 175.562 173.267 174.655 172.2C173.802 171.133 173.375 169.907 173.375 168.52V140.52C173.375 138.067 173.748 136.387 174.495 135.48C175.775 133.827 177.802 133 180.575 133H196.735V118.44H191.455V113H203.295V167.48H208.335ZM196.735 138.44H179.775V167.96L196.735 157.4V138.44ZM222.203 173C219.483 173 217.563 172.387 216.443 171.16C215.323 169.88 214.763 168.12 214.763 165.88V140.12C214.763 137.987 215.243 136.28 216.203 135C217.216 133.667 219.216 133 222.203 133H237.003C239.936 133 241.909 133.667 242.923 135C243.936 136.28 244.443 137.987 244.443 140.12V165.88C244.443 168.12 243.883 169.88 242.763 171.16C241.643 172.387 239.723 173 237.003 173H222.203ZM221.243 167.56H237.963V138.44H221.243V167.56ZM298.456 132.2C302.616 132.2 304.696 134.253 304.696 138.36V167.56H309.816V173H294.376V167.56H298.216V137.8L283.576 146.92V167.56H287.496V173H273.176V167.56H277.016L277.096 167.24V137.72L262.376 146.92V167.56H266.296V173H250.856V167.56H255.896V138.36H250.856V133H262.376V140.6L274.456 133C275.31 132.467 276.27 132.2 277.336 132.2C281.496 132.2 283.576 134.253 283.576 138.36V140.52L295.576 133C296.43 132.467 297.39 132.2 298.456 132.2Z" fill="#0C2672"/>
<path d="M178.899 16C182.846 16 185.566 16.88 187.059 18.64C188.606 20.3467 189.379 22.96 189.379 26.48V65.52C189.379 69.2 188.526 71.8667 186.819 73.52C185.113 75.1733 182.473 76 178.899 76H150.659V70.56H155.699V21.44H150.659V16H178.899ZM182.819 21.44H162.259V70.56H182.819V21.44ZM198.141 43.84C198.141 38.56 200.887 35.92 206.381 35.92H219.901C222.514 35.92 224.407 36.4267 225.581 37.44C226.754 38.4533 227.341 40.32 227.341 43.04V50.48L204.541 64.88V70.56H221.021V65.92H227.341V70.16C227.341 71.76 226.834 73.1467 225.821 74.32C224.861 75.44 223.234 76 220.941 76H204.541C202.247 76 200.594 75.44 199.581 74.32C198.621 73.1467 198.141 71.76 198.141 70.16V43.84ZM204.541 58.4L220.941 48.08V41.44H204.541V58.4ZM259.728 36.32C260.901 35.5733 262.261 35.2 263.808 35.2C265.408 35.2 266.741 35.7867 267.808 36.96C268.928 38.1333 269.488 39.84 269.488 42.08V68.96C269.488 71.1467 269.141 72.6933 268.448 73.6C267.168 75.2 265.221 76 262.608 76H234.528V70.56H239.568V21.44H234.528V16H246.128V44.88L259.728 36.32ZM263.088 40.64L246.128 51.28V70.56H263.088V40.64ZM288.876 21.44V36H295.356V41.76H288.876V70.56H296.476V76H289.756C287.356 76 285.569 75.3867 284.396 74.16C283.222 72.88 282.636 70.72 282.636 67.68V41.76H276.716V36H282.636V21.44H288.876Z" fill="#BE3535"/>
</g>
<defs>
<clipPath id="clip0_10_2">
<rect width="333" height="191" fill="white"/>
</clipPath>
</defs>
</svg>
